<svg xmlns="http://www.w3.org/2000/svg" viewBox="0 0 240 240" width="240" height="240">
  <defs>
    <linearGradient id="esGrad" x1="0" y1="0" x2="1" y2="0"><stop offset="0%" stop-color="#D0A0A8"/><stop offset="40%" stop-color="#F0D8DC"/><stop offset="100%" stop-color="#D0A0A8"/></linearGradient>
    <linearGradient id="esInner" x1="0" y1="0" x2="1" y2="0"><stop offset="0%" stop-color="#E8BCBC"/><stop offset="50%" stop-color="#FFF0F0"/><stop offset="100%" stop-color="#E8BCBC"/></linearGradient>
    <filter id="esShadow"><feDropShadow dx="2" dy="4" stdDeviation="5" flood-color="#401018" flood-opacity="0.38"/></filter>
  </defs>

  <!-- esofagus (batang memanjang, sedikit berkelok natural) -->
  <path d="M96 12 C92 40 90 80 92 120 C94 160 100 195 108 220" fill="none" stroke="url(#esGrad)" stroke-width="44" stroke-linecap="round" filter="url(#esShadow)"/>
  <!-- kontra sisi kanan -->
  <path d="M144 12 C148 40 150 80 148 120 C146 160 140 195 132 220" fill="none" stroke="url(#esGrad)" stroke-width="28" stroke-linecap="round"/>
  <!-- lumen dalam -->
  <path d="M110 12 C107 40 106 80 108 120 C110 160 114 195 118 220" fill="none" stroke="url(#esInner)" stroke-width="16" stroke-linecap="round" opacity="0.65"/>

  <!-- lipatan mukosa (mucosal folds) -->
  <g stroke="#B88090" stroke-width="2" fill="none" opacity="0.5" stroke-linecap="round">
    <path d="M98 32 C108 28 118 28 130 32"/><path d="M97 56 C107 52 117 52 129 56"/>
    <path d="M97 80 C107 76 117 76 129 80"/><path d="M97 104 C107 100 117 100 129 104"/>
    <path d="M97 128 C108 124 118 124 130 128"/><path d="M98 152 C108 148 118 148 130 152"/>
    <path d="M100 176 C110 172 120 172 132 176"/><path d="M103 200 C112 196 122 196 132 200"/>
  </g>

  <!-- gelombang peristaltik (daerah kontraksi — bayangan gelap) -->
  <path d="M94 68 C100 64 106 64 112 68 C118 72 112 76 106 76 C100 76 94 72 94 68 Z" fill="#B87080" opacity="0.45"/>
  <path d="M128 68 C134 64 140 64 146 68 C148 72 142 76 136 76 C130 76 128 72 128 68 Z" fill="#B87080" opacity="0.35"/>

  <path d="M93 108 C99 104 105 104 111 108 C117 112 111 116 105 116 C99 116 93 112 93 108 Z" fill="#B87080" opacity="0.45"/>
  <path d="M129 108 C135 104 141 104 147 108 C149 112 143 116 137 116 C131 116 129 112 129 108 Z" fill="#B87080" opacity="0.35"/>

  <!-- panah arah -->
  <path d="M162 100 L170 110 L162 120" fill="none" stroke="#D84060" stroke-width="2.5" stroke-linecap="round" stroke-linejoin="round" opacity="0.8"/>
  <text x="172" y="108" font-family="sans-serif" font-size="8" fill="#C03050" opacity="0.85">ke</text>
  <text x="172" y="118" font-family="sans-serif" font-size="8" fill="#C03050" opacity="0.85">bawah</text>

  <!-- label -->
  <text x="120" y="236" text-anchor="middle" font-family="'Plus Jakarta Sans',sans-serif" font-size="13.5" font-weight="700" fill="#8A3040">Kerongkongan</text>
</svg>
